<?xml version="1.0" encoding="UTF-8" standalone="no"?>
<!-- Created with Inkscape (http://www.inkscape.org/) -->

<svg
   width="64"
   height="64"
   viewBox="0 0 16.933333 16.933333"
   version="1.1"
   id="svg5"
   inkscape:version="1.1 (c68e22c387, 2021-05-23)"
   sodipodi:docname="mini.svg"
   xmlns:inkscape="http://www.inkscape.org/namespaces/inkscape"
   xmlns:sodipodi="http://sodipodi.sourceforge.net/DTD/sodipodi-0.dtd"
   xmlns="http://www.w3.org/2000/svg"
   xmlns:svg="http://www.w3.org/2000/svg">
  <sodipodi:namedview
     id="namedview7"
     pagecolor="#505050"
     bordercolor="#ffffff"
     borderopacity="1"
     inkscape:pageshadow="0"
     inkscape:pageopacity="0"
     inkscape:pagecheckerboard="1"
     inkscape:document-units="mm"
     showgrid="false"
     units="px"
     width="64px"
     inkscape:zoom="11.573962"
     inkscape:cx="30.067492"
     inkscape:cy="33.480325"
     inkscape:window-width="1920"
     inkscape:window-height="1001"
     inkscape:window-x="-9"
     inkscape:window-y="-9"
     inkscape:window-maximized="1"
     inkscape:current-layer="layer1" />
  <defs
     id="defs2" />
  <g
     inkscape:label="Layer 1"
     inkscape:groupmode="layer"
     id="layer1">
    <g
       id="g2243"
       transform="matrix(1.3162479,0,0,1.3115865,-3.3037227,-5.0093495)"
       style="stroke-width:0.761084">
      <path
         style="fill:#ffffff;stroke:#000000;stroke-width:0.20137px;stroke-linecap:butt;stroke-linejoin:miter;stroke-opacity:1"
         d="M 4.9378078,16.207897 6.6866147,14.45909 h 5.0863993 l -1.092092,1.705296 z"
         id="path915"
         sodipodi:nodetypes="ccccc" />
      <path
         style="fill:#808080;stroke:#000000;stroke-width:0.20137px;stroke-linecap:butt;stroke-linejoin:miter;stroke-opacity:1"
         d="M 6.6736918,14.45909 8.2457279,12.710283 H 12.81799 l -0.981703,1.705296 z"
         id="path915-3"
         sodipodi:nodetypes="ccccc" />
      <path
         style="fill:#ffffff;stroke:#000000;stroke-width:0.20137px;stroke-linecap:butt;stroke-linejoin:miter;stroke-opacity:1"
         d="M 6.6866147,14.45909 6.6751847,10.104218 7.7038945,9.1440885 7.109529,8.4125614 6.309421,8.0925185 V 7.5895935 H 7.2695503 V 6.4008621 L 8.161099,5.6007542 7.4342759,5.1811226 V 4.5263239 L 7.6189344,4.206486 8.6183035,4.2291423 8.9383467,4.5491855 v 0.4572044 l 0.3200429,0.2971827 h 0.8001084 l 1.07443,1.1201508 v 1.3030327 l 0.320043,0.2743226 v 0.9829896 l -0.617226,0.3657637 0.822968,0.777247 0.114301,4.332012 H 6.6866147"
         id="path1045"
         sodipodi:nodetypes="ccccccccccccccccccccccccc" />
      <path
         id="path1217"
         style="fill:#999999;stroke:#000000;stroke-width:0.20137px;stroke-linecap:butt;stroke-linejoin:miter;stroke-opacity:1"
         d="m 11.649051,12.052284 h -0.320043 l -0.480065,0.342903 v 1.211592 l 0.320043,0.228602 v 0.548645 H 7.694232 V 12.463768 L 7.51135,12.166585 6.711243,12.143725 6.675183,10.104219 7.703893,9.1440888 7.109527,8.4125617 6.309419,8.0925188 v -0.502925 h 0.96013 V 6.4008624 L 8.161098,5.6007545 7.434275,5.1811229 V 4.5263242 l 0.184659,-0.3198379 0.999369,0.022656 0.320043,0.3200432 v 0.4572044 l 0.320043,0.2971827 h 0.800109 l 1.07443,1.1201508 v 1.3030327 l 0.320043,0.2743226 v 0.9829896 l -0.617226,0.3657641 0.822968,0.7772476 z"
         sodipodi:nodetypes="ccccccccccccccccccccccccccccccccc" />
      <rect
         style="fill:#ffffff;stroke:#000000;stroke-width:0.20137;stroke-linecap:round;stroke-linejoin:round"
         id="rect1321"
         width="0.4343442"
         height="1.2801725"
         x="9.1440887"
         y="11.933036"
         ry="0" />
    </g>
  </g>
</svg>
